<?xml version="1.0" encoding="utf-8"?>
<!-- Generator: Adobe Illustrator 19.2.1, SVG Export Plug-In . SVG Version: 6.00 Build 0)  -->
<svg version="1.1" id="Layer_1" xmlns="http://www.w3.org/2000/svg" xmlns:xlink="http://www.w3.org/1999/xlink" x="0px" y="0px"
	 viewBox="0 0 323.4 323.4" style="enable-background:new 0 0 323.4 323.4;" xml:space="preserve">
<style type="text/css">
	.st0{fill:#20D572;}
	.st1{fill:#4FAAE2;}
</style>
<path class="st0" d="M247.3,162.4c0-3.7-9.2-6.7-9.7-10.3c-0.6-3.6,7.3-9,6.2-12.4c-1.1-3.5-10.8-4-12.4-7.3
	c-1.6-3.3,4.3-10.5,2.2-13.6c-2.1-3.1-11.6-1-14.1-3.7c-2.6-2.8,1-11.2-2-13.6c-2.9-2.4-11.4,2.1-14.7,0.1c-3.3-2-2.4-11-6-12.5
	c-3.5-1.5-10.3,5-14.1,4c-3.7-1-5.6-9.9-9.5-10.4c-3.8-0.5-8.3,7.5-12.3,7.5s-8.5-8-12.3-7.5c-3.9,0.5-5.8,9.4-9.5,10.4
	c-3.8,1-10.5-5.5-14.1-4c-3.6,1.5-2.7,10.6-6,12.5c-3.3,2-11.7-2.5-14.7-0.1c-2.9,2.4,0.6,10.8-2,13.6c-2.5,2.7-12,0.7-14.1,3.7
	c-2.1,3,3.8,10.2,2.2,13.6c-1.6,3.3-11.3,3.8-12.4,7.3c-1.1,3.5,6.8,8.8,6.2,12.4c-0.5,3.6-9.7,6.6-9.7,10.3c0,3.7,9.2,6.7,9.7,10.3
	c0.6,3.6-7.3,9-6.2,12.4c1.1,3.5,10.8,4,12.4,7.3c1.6,3.3-4.3,10.5-2.2,13.6c2.1,3.1,11.6,1,14.1,3.7c2.6,2.8-1,11.2,2,13.6
	c2.9,2.4,11.4-2.1,14.7-0.1c3.3,2,2.4,11,6,12.5c3.5,1.5,10.3-5,14.1-4c3.7,1,5.6,9.9,9.5,10.4c3.8,0.5,8.3-7.5,12.3-7.5
	c4,0,8.5,8,12.3,7.5c3.9-0.5,5.8-9.4,9.5-10.4c3.8-1,10.5,5.5,14.1,4c3.6-1.5,2.7-10.6,6-12.5c3.3-2,11.7,2.5,14.7,0.1
	c2.9-2.4-0.6-10.8,2-13.6c2.5-2.7,12-0.7,14.1-3.7c2.1-3-3.8-10.2-2.2-13.6c1.6-3.3,11.3-3.8,12.4-7.3c1.1-3.5-6.8-8.8-6.2-12.4
	C238.1,169.1,247.3,166.1,247.3,162.4z M161,227.1c-38.3,0-69.3-29-69.3-64.7s31-64.7,69.3-64.7c38.3,0,69.3,29,69.3,64.7
	S199.2,227.1,161,227.1z"/>
<g>
	<path class="st1" d="M161,224.9c-36.9,0-66.9-28-66.9-62.5s30-62.5,66.9-62.5s66.9,28,66.9,62.5S197.8,224.9,161,224.9z M161,101.6
		c-35.9,0-65,27.3-65,60.8c0,33.5,29.2,60.8,65,60.8c35.9,0,65-27.3,65-60.8C226,128.9,196.8,101.6,161,101.6z"/>
</g>
<g>
	<path class="st1" d="M177.5,142.7c-0.3-0.6-0.6-1.2-0.9-1.8c-0.3-0.5-0.5-1-0.8-1.5c-0.4-0.7-0.8-1.4-1.3-2.1
		c-3.5-5.2-8.4-9.9-14.6-13.3c-17.2-9.6-37.6-6.1-45.3,7.8c-3.3,5.9-3.9,13-1.8,20.1c1.9,6.4,6,12.5,11.5,17.3
		c-2.5,3.5-5.4,6.7-8.5,9.4l-2.6,2.2l3.3,0.8c7.9,2,17.3-0.8,23.9-3.5c2.2,0.7,4.5,1.2,6.7,1.5c1.3,0.2,2.5,0.3,3.7,0.3
		c0.2,0,0.3,0,0.5,0c1.3,0,2.5,0,3.7-0.1c9.5-0.8,17.8-5.4,22-13.1C181.1,159.3,181,150.7,177.5,142.7z M174,164.8
		c-4,7.2-12,11.3-21.3,11.4c-1.1,0-2.2,0-3.4-0.1c-0.3,0-0.5,0-0.8-0.1c-1.1-0.1-2.1-0.3-3.2-0.5c-1.5-0.3-3-0.7-4.6-1.2l-0.6-0.2
		l-0.6,0.3c-5.2,2.2-12.4,4.6-18.8,4.2c2.7-2.7,5.2-5.7,7.4-8.9l0.9-1.3l-1.2-1c-11.6-9.4-15.9-23.7-10.1-34
		c6.8-12.2,25-15.1,40.5-6.4c4.9,2.8,9,6.3,12.1,10.3c0.6,0.8,1.2,1.7,1.8,2.5c0.2,0.3,0.3,0.6,0.5,0.8c0.5,0.8,0.9,1.6,1.3,2.4
		C177.3,150.4,177.7,158.3,174,164.8z"/>
</g>
<path class="st1" d="M202.5,145.4c-1.2-0.8-2.4-1.5-3.7-2.1c-5.6-2.8-12.2-4.3-19.3-4.2c-1.3,0-2.5,0.1-3.7,0.2
	c-1.3,0.1-2.5,0.3-3.8,0.5c-16.1,3.1-28.1,14.9-27.8,28.8c0,2.4,0.5,4.8,1.2,7c0.4,1.3,1,2.6,1.6,3.8c4.3,8.1,13,14.4,24.1,16.6
	c4.5,5.6,11.5,12.4,19.4,14.4l3.3,0.8l-1.2-3.2c-1.5-3.9-2.6-8-3.1-12.3c3.6-0.8,7-2.1,10-3.8c1.3-0.7,2.5-1.4,3.6-2.2
	c1.7-1.2,3.2-2.5,4.6-3.9c5.2-5.2,8-11.8,7.9-18.5C215.6,158.4,210.4,150.5,202.5,145.4z M199.5,188c-1.1,0.7-2.4,1.3-3.6,1.9
	c-2.6,1.2-5.5,2.1-8.6,2.7l-1.6,0.3l0.2,1.6c0.4,3.9,1.1,7.7,2.3,11.3c-5.9-2.7-11.1-8.1-14.6-12.5l-0.4-0.5l-0.7-0.1
	c-9.4-1.7-17-6.5-21.2-12.9c-0.8-1.2-1.4-2.4-1.9-3.6c-1-2.4-1.6-5-1.6-7.6c-0.2-12.5,11.1-23,26.1-25.4c1.2-0.2,2.4-0.3,3.7-0.4
	c0.7,0,1.4-0.1,2-0.1c5.7-0.1,11,0.9,15.6,2.9c1.3,0.5,2.5,1.1,3.7,1.8c8,4.5,13.3,11.8,13.4,20.1
	C212.4,175.6,207.5,183.1,199.5,188z"/>
<g>
	<path class="st1" d="M18.1,151C23.5,76.6,85.9,17.7,161.7,17.7S299.8,76.6,305.3,151h4c-5.5-76.7-69.6-137.3-147.6-137.3
		S19.5,74.4,14,151H18.1z"/>
	<path class="st1" d="M305.3,172.3c-5.5,74.4-67.8,133.3-143.6,133.3S23.5,246.8,18.1,172.3h-4c5.5,76.7,69.6,137.3,147.6,137.3
		S303.8,249,309.3,172.3H305.3z"/>
</g>
<path class="st0" d="M82.2,169.2H7.9c-4.2,0-7.7-3.4-7.7-7.7v0c0-4.2,3.4-7.7,7.7-7.7h74.3c4.2,0,7.7,3.4,7.7,7.7v0
	C89.8,165.8,86.4,169.2,82.2,169.2z"/>
<path class="st0" d="M312.1,169.2h-73.3c-4.2,0-7.7-3.4-7.7-7.7v0c0-4.2,3.4-7.7,7.7-7.7h73.3c4.2,0,7.7,3.4,7.7,7.7v0
	C319.7,165.8,316.3,169.2,312.1,169.2z"/>
<path class="st0" d="M112.9,50.3c-1.1-0.3-2.5,0-3.6,0.7l-0.2,0.1c-2,1.3-3.2,3.6-2.8,5.5c0.1,0.4,0.2,0.8,0.2,1.2
	c0.3,1.4,0.6,2.9,0.9,4.5c0.3,1.5,0.6,3,0.8,4.5c0.2,1,0.3,2,0.5,3c-0.8-0.5-1.6-1-2.5-1.6c-1.2-0.8-2.5-1.7-3.7-2.6
	c-1.3-0.9-2.5-1.8-3.7-2.7c-0.4-0.3-0.8-0.6-1.2-0.9c-1.4-1-3.6-0.9-5.4,0.2l-0.9,0.6c-1.1,0.7-1.9,1.8-2.1,3
	c-0.2,1.2,0.2,2.2,1.1,2.8c3.1,2.1,6.1,4.1,9.1,5.8c3,1.8,5.9,3.3,8.6,4.6c1.6,0.8,3.9,0.5,5.8-0.7l0.9-0.6c1.7-1.1,2.8-3,2.8-4.7
	c-0.1-3-0.3-6.4-0.7-9.9c-0.4-3.4-0.9-6.9-1.6-10.6C114.8,51.4,114,50.6,112.9,50.3z"/>
<path class="st0" d="M44.4,96.7c0.6-0.9,1.4-1.5,2.5-1.8c1.1-0.3,2.1-0.1,3,0.5c0.9,0.6,1.5,1.4,1.8,2.5c0.3,1.1,0.1,2.1-0.5,3
	c-0.6,0.9-1.4,1.5-2.5,1.8c-1.1,0.3-2.1,0.1-3-0.5c-1-0.6-1.6-1.4-1.8-2.5S43.8,97.6,44.4,96.7z M54,98l22.4,13.9l-4.2,6.8
	l-22.4-13.9L54,98z"/>
<path class="st0" d="M69.3,78.5c2.6-2.7,5.7-4.1,9.4-4.3c3.8-0.2,7,1,9.6,3.6l9.4,9.2l-5.6,5.7l-9.4-9.2c-1.1-1-2.4-1.5-4-1.5
	c-1.6,0.1-2.9,0.7-4,1.7c-1.1,1.1-1.6,2.4-1.7,4c0,1.5,0.5,2.8,1.6,3.9l9.4,9.2l-5.6,5.7l-9.4-9.2c-2.7-2.6-3.9-5.8-3.8-9.5
	C65.4,84.3,66.7,81.2,69.3,78.5z"/>
<path class="st0" d="M137.5,41.7c3.7-0.6,7.1,0.1,10.2,2.2c3.1,2.1,4.9,5,5.5,8.7c0.6,3.6-0.3,6.9-2.6,9.9c-2.3,2.9-5.2,4.7-8.9,5.2
	c-3.8,0.6-7.2-0.2-10.2-2.3c-3.1-2.1-4.9-5-5.5-8.5c-0.6-3.7,0.3-7,2.6-10C130.8,44.1,133.8,42.3,137.5,41.7z M138.7,49.3
	c-1.5,0.2-2.7,1-3.7,2.2c-1,1.2-1.3,2.6-1.1,4.1c0.2,1.5,1,2.7,2.3,3.6c1.3,0.9,2.7,1.2,4.2,0.9c1.5-0.2,2.8-1,3.7-2.2
	c1-1.2,1.3-2.6,1.1-4.1c-0.2-1.5-1-2.8-2.3-3.6C141.7,49.4,140.3,49.1,138.7,49.3z"/>
<path class="st0" d="M173,57.6c1,1.2,2.3,1.8,3.9,2l-0.8,7.6c-3.7-0.4-6.8-2-9.2-4.8c-2.5-2.8-3.5-6.1-3.1-9.8l0.9-8.2l-3.2-0.3
	l0.5-4.8l3.2,0.3l0.9-8.8l8,0.8l-0.9,8.8l7.6,0.8l-0.5,4.8l-7.6-0.8l-0.9,8.2C171.5,55.1,171.9,56.4,173,57.6z"/>
<path class="st0" d="M195.4,44.8l-7.1,25.3l-7.7-2.2l7.1-25.3L195.4,44.8z M193.9,35.3c1,0.3,1.8,0.9,2.4,1.9c0.5,1,0.7,2,0.4,3.1
	c-0.3,1-0.9,1.8-1.9,2.4c-1,0.5-2,0.7-3,0.4c-1.1-0.3-1.9-0.9-2.4-1.9c-0.5-1-0.7-2-0.4-3c0.3-1.1,0.9-1.9,1.9-2.4
	C191.8,35.1,192.8,35,193.9,35.3z"/>
<path class="st0" d="M216.4,63.5c-0.5-1.5-1.5-2.6-2.8-3.3c-1.3-0.7-2.8-0.9-4.3-0.5c-1.5,0.4-2.6,1.3-3.3,2.6
	c-0.7,1.3-0.8,2.8-0.3,4.2c0.5,1.5,1.4,2.6,2.8,3.3c1.7,0.9,3.4,1,5.1,0.2l-4.3,8.1c-1.6-0.3-3.1-0.8-4.5-1.5
	c-3.3-1.8-5.5-4.4-6.7-7.9c-1.2-3.6-1-7,0.8-10.2c1.7-3.3,4.4-5.4,8-6.3c3.6-1,7.1-0.6,10.3,1.2c3.3,1.7,5.5,4.4,6.7,7.9
	c1.2,3.6,1,7-0.8,10.3l-6.2,11.7l-7.1-3.8l6.2-11.7C216.8,66.4,216.9,65,216.4,63.5z"/>
<path class="st0" d="M234.9,86.8c0.1,1.6,0.8,2.9,1.9,3.9l-5.2,5.6c-2.8-2.5-4.3-5.7-4.6-9.3c-0.3-3.7,0.8-7,3.3-9.7l5.6-6.1
	l-2.3-2.2l3.3-3.6l2.3,2.2l6-6.5l5.9,5.4l-6,6.5l5.6,5.2l-3.3,3.6l-5.6-5.2l-5.6,6.1C235.3,83.9,234.8,85.3,234.9,86.8z"/>
<path class="st0" d="M264.7,95.9c1.8,2.9,2.5,6,1.9,9.4c-0.6,3.4-2.2,6.2-4.8,8.3l-4.1,2.6l-9.5-14.9c-0.5,1.6-0.3,3.1,0.6,4.6
	l6.5,10.3c-2.6,0.3-5-0.1-7.4-1.2c-2.3-1.1-4.2-2.8-5.6-5c-2-3.1-2.6-6.5-1.9-10.1c0.7-3.6,2.7-6.4,5.8-8.3c3.1-2,6.5-2.6,10-1.7
	C259.9,90.8,262.7,92.8,264.7,95.9z M257.5,106.9c0.9-0.9,1.4-2,1.6-3.3c0.1-1.3-0.1-2.5-0.8-3.6c-0.7-1.1-1.7-1.9-2.9-2.3
	c-1.2-0.4-2.5-0.4-3.7,0L257.5,106.9z"/>
<g>
	<path class="st1" d="M69.1,231.2l-3.7,2.4l-8.4-12.7L76,208.3l2.8,4.3l-15.4,10.2L69.1,231.2z"/>
	<path class="st1" d="M74.4,231.7c1.1-1,2.3-1.8,3.5-2.2c1.2-0.4,2.3-0.6,3.4-0.6c1.1,0,2.1,0.3,3.1,0.8c1,0.5,1.8,1.1,2.5,1.9
		c1.7,1.8,2.4,3.8,2.3,5.8c-0.1,2.1-1.3,4.1-3.5,6.1c-0.2,0.2-0.4,0.4-0.7,0.6c-0.3,0.2-0.5,0.4-0.7,0.6l-7.5-8.2
		c-0.7,0.8-0.9,1.7-0.8,2.7c0.1,1,0.7,2,1.6,3.1c0.6,0.7,1.3,1.3,2,1.8c0.7,0.5,1.3,0.9,1.9,1.2l-2.5,3.2c-0.3-0.1-0.6-0.3-1-0.5
		c-0.4-0.2-0.8-0.5-1.2-0.8s-0.9-0.7-1.4-1.1s-0.9-0.8-1.3-1.3c-1.1-1.2-1.8-2.3-2.2-3.5s-0.6-2.3-0.5-3.4c0.1-1.1,0.4-2.2,1-3.2
		C72.7,233.5,73.5,232.5,74.4,231.7z M83.6,238.9c0.3-0.3,0.5-0.6,0.8-1c0.2-0.4,0.3-0.7,0.4-1.1c0.1-0.4,0-0.8-0.1-1.2
		c-0.1-0.4-0.4-0.8-0.8-1.3c-0.4-0.4-0.8-0.7-1.2-0.9c-0.4-0.2-0.8-0.2-1.2-0.2s-0.8,0.1-1.2,0.3c-0.4,0.2-0.8,0.4-1.1,0.6
		L83.6,238.9z"/>
	<path class="st1" d="M97.1,236.3l4.3,2.4l-3.2,4l4.6,3.7l-2.5,3.2l-4.6-3.7l-3.8,4.8c-0.6,0.8-1,1.6-1.1,2.3
		c-0.1,0.7,0.3,1.4,1.1,2.1c0.4,0.3,0.9,0.6,1.4,0.9c0.5,0.3,1,0.5,1.5,0.6l-1.8,3.4c-0.6-0.2-1.3-0.4-1.9-0.7
		c-0.7-0.3-1.4-0.8-2.3-1.5c-1.1-0.8-1.8-1.7-2.3-2.5c-0.5-0.8-0.7-1.7-0.7-2.5c0-0.8,0.2-1.7,0.6-2.5s1-1.7,1.7-2.6L97.1,236.3z"/>
	<path class="st1" d="M113.9,244c-0.1,0.3-0.3,0.6-0.4,0.9c-0.2,0.3-0.3,0.5-0.4,0.6c-0.8,1.2-1.8,2.3-2.9,3.1
		c-1.2,0.8-2.3,1.4-3.5,1.8l-2.5-2.5c0.9-0.6,1.7-1.3,2.6-2.2c0.8-0.9,1.6-1.8,2.1-2.7c0,0,0.1-0.1,0.2-0.2c0.1-0.1,0.2-0.3,0.3-0.4
		c0.1-0.2,0.2-0.3,0.3-0.5c0.1-0.2,0.2-0.3,0.2-0.5L113.9,244z"/>
	<path class="st1" d="M108.4,265.8c0.8,0.4,1.4,0.6,1.8,0.6c0.4,0,0.7-0.2,1-0.7c0.2-0.4,0.1-0.8-0.2-1.3c-0.3-0.5-0.8-1.1-1.5-1.9
		c-0.6-0.6-1-1.2-1.5-1.8s-0.7-1.1-0.9-1.7c-0.2-0.6-0.3-1.2-0.2-1.8c0.1-0.6,0.3-1.3,0.7-2.1c0.7-1.4,1.9-2.3,3.4-2.6
		s3.2,0.1,5.1,1c0.9,0.5,1.8,1,2.6,1.6c0.8,0.6,1.4,1.1,1.8,1.6l-2.5,3c-0.4-0.4-0.9-0.9-1.4-1.3c-0.5-0.4-1.2-0.9-1.9-1.2
		c-1.4-0.7-2.2-0.7-2.6,0.1c-0.1,0.2-0.1,0.3-0.2,0.5s0,0.4,0.1,0.6c0.1,0.2,0.3,0.5,0.5,0.8c0.2,0.3,0.5,0.7,0.9,1.1
		c0.8,0.8,1.4,1.6,1.8,2.3s0.7,1.3,0.9,1.9c0.2,0.6,0.2,1.2,0.1,1.7c-0.1,0.6-0.3,1.2-0.7,1.8c-0.8,1.5-2,2.4-3.5,2.6
		c-1.5,0.2-3.4-0.3-5.5-1.3c-1.4-0.7-2.4-1.4-3.2-2.1s-1.3-1.2-1.6-1.6l2.6-3.2c0.6,0.7,1.2,1.3,1.9,1.9
		C107,265,107.7,265.4,108.4,265.8z"/>
	<path class="st1" d="M143,281.3c-0.9-2.9-1.9-5.7-3-8.6s-2.4-5.6-3.8-8.2l-3.2,14.6l-5-1.1l4.9-22.3l4.1,0.9
		c0.6,0.9,1.1,1.9,1.8,3.1c0.6,1.2,1.3,2.5,1.9,3.9c0.6,1.4,1.3,2.8,1.9,4.2c0.6,1.4,1.2,2.8,1.7,4.2l2.9-13.2l5,1.1l-4.9,22.3
		L143,281.3z"/>
	<path class="st1" d="M154.4,274.3c0-1.5,0.3-2.9,0.8-4c0.5-1.1,1.1-2.1,1.9-2.9c0.8-0.8,1.7-1.3,2.7-1.7c1-0.4,2-0.6,3.1-0.6
		c2.5,0,4.4,0.8,5.8,2.3c1.4,1.5,2.1,3.7,2.1,6.7c0,0.3,0,0.6,0,0.9c0,0.3-0.1,0.6-0.1,0.9l-11.2-0.1c0.1,1,0.6,1.8,1.4,2.4
		c0.8,0.6,1.9,0.9,3.4,0.9c0.9,0,1.8-0.1,2.7-0.2c0.9-0.2,1.6-0.3,2.1-0.6l0.6,4c-0.3,0.1-0.6,0.3-1.1,0.4s-0.9,0.2-1.5,0.3
		c-0.5,0.1-1.1,0.2-1.7,0.2c-0.6,0.1-1.2,0.1-1.8,0.1c-1.6,0-2.9-0.3-4.1-0.7c-1.1-0.5-2.1-1.1-2.9-1.9c-0.8-0.8-1.3-1.8-1.7-2.9
		C154.5,276.8,154.4,275.6,154.4,274.3z M165.9,272.6c0-0.4-0.1-0.8-0.2-1.2c-0.1-0.4-0.3-0.8-0.5-1.1c-0.3-0.3-0.6-0.6-0.9-0.8
		c-0.4-0.2-0.9-0.3-1.4-0.3c-0.6,0-1,0.1-1.4,0.3c-0.4,0.2-0.7,0.4-1,0.7c-0.3,0.3-0.5,0.7-0.6,1.1c-0.1,0.4-0.3,0.8-0.3,1.2
		L165.9,272.6z"/>
	<path class="st1" d="M191.4,277.8c0.5,2.8,0.1,5-1.1,6.6c-1.2,1.6-3.3,2.7-6.2,3.2c-1,0.2-2.1,0.3-3.2,0.3s-2.1-0.1-3-0.2l0.1-4.2
		c0.8,0.2,1.6,0.3,2.5,0.3c0.9,0,1.8,0,2.9-0.2c1.4-0.2,2.3-0.7,2.8-1.4c0.5-0.7,0.6-1.5,0.5-2.5l-0.1-0.6c-0.5,0.3-1,0.6-1.5,0.8
		c-0.5,0.2-1.1,0.4-1.8,0.5c-2.4,0.4-4.3,0-5.8-1.2c-1.5-1.2-2.5-3-2.9-5.5c-0.2-1.3-0.2-2.4,0-3.5c0.2-1.1,0.6-2.1,1.3-2.9
		c0.6-0.9,1.4-1.6,2.5-2.2c1-0.6,2.2-1,3.6-1.2c0.6-0.1,1.2-0.2,1.8-0.2c0.6-0.1,1.3-0.1,1.9-0.1c0.6,0,1.2,0,1.8,0
		c0.6,0,1.1,0.1,1.5,0.1L191.4,277.8z M179.5,272.7c0.5,2.7,1.8,3.9,4,3.5c0.5-0.1,1-0.2,1.4-0.4c0.4-0.2,0.8-0.4,1-0.6l-1.3-7.7
		c-0.2,0-0.5,0-0.9,0c-0.3,0-0.7,0.1-1.1,0.1c-1.3,0.2-2.2,0.8-2.6,1.8S179.3,271.4,179.5,272.7z"/>
	<path class="st1" d="M211,264.3c0.5,1.3,0.7,2.5,0.7,3.7c0,1.2-0.2,2.3-0.6,3.3s-1,1.9-1.9,2.7c-0.8,0.8-1.8,1.4-3.1,1.8
		c-1.2,0.4-2.4,0.6-3.5,0.6c-1.1-0.1-2.2-0.3-3.2-0.8c-1-0.5-1.9-1.2-2.6-2.1s-1.4-2-1.9-3.3s-0.7-2.5-0.7-3.7s0.2-2.3,0.7-3.3
		c0.4-1,1.1-1.9,1.9-2.7c0.8-0.8,1.8-1.4,3-1.8c1.2-0.4,2.3-0.6,3.5-0.6c1.1,0.1,2.2,0.3,3.2,0.8c1,0.5,1.9,1.2,2.6,2.1
		C209.9,261.9,210.5,263,211,264.3z M206.3,266c-0.5-1.4-1.2-2.4-2.1-3c-0.9-0.6-1.8-0.7-2.9-0.3c-1.1,0.4-1.7,1.1-2,2.1
		s-0.2,2.3,0.4,3.7c0.5,1.4,1.2,2.4,2.1,3.1c0.9,0.6,1.9,0.7,2.9,0.3c1.1-0.4,1.7-1.1,2-2.2C206.9,268.7,206.8,267.5,206.3,266z"/>
	<path class="st1" d="M208.6,250.8l3.9-3.1l2.5,4.5l5.1-2.9l2,3.6l-5.1,2.9l3,5.3c0.5,0.9,1.1,1.5,1.7,1.9c0.6,0.4,1.4,0.3,2.4-0.3
		c0.5-0.3,0.9-0.6,1.3-0.9c0.4-0.4,0.8-0.7,1.1-1.1l2.5,3c-0.4,0.5-0.9,1-1.4,1.5c-0.5,0.5-1.3,1-2.2,1.5c-1.2,0.7-2.2,1-3.2,1.2
		s-1.8,0-2.6-0.3c-0.8-0.3-1.5-0.8-2.1-1.5c-0.6-0.7-1.2-1.5-1.8-2.5L208.6,250.8z"/>
	<path class="st1" d="M224.6,239.9c0.5,0.7,0.7,1.5,0.5,2.2c-0.2,0.8-0.6,1.4-1.2,1.8c-0.6,0.5-1.4,0.7-2.1,0.6
		c-0.8-0.1-1.4-0.5-2-1.2c-0.5-0.7-0.7-1.5-0.5-2.2s0.6-1.4,1.2-1.8c0.6-0.5,1.4-0.7,2.1-0.6C223.4,238.8,224,239.2,224.6,239.9z
		 M237.3,258.3l-4,2.9l-10.2-14.1l4-2.9L237.3,258.3z"/>
	<path class="st1" d="M234.8,237.2c1.1-1,2.1-1.7,3-2.1c0.9-0.4,1.8-0.6,2.7-0.6c0.8,0.1,1.7,0.3,2.4,0.8c0.8,0.5,1.5,1.1,2.3,1.9
		l7,7.5c-0.4,0.6-1,1.4-1.8,2.4c-0.8,1-1.8,2.1-3.1,3.3c-0.8,0.8-1.6,1.4-2.4,1.9c-0.8,0.5-1.6,0.8-2.4,0.9c-0.8,0.1-1.6,0-2.3-0.2
		c-0.8-0.3-1.5-0.8-2.2-1.6c-0.7-0.7-1.1-1.5-1.3-2.3c-0.2-0.8-0.2-1.6,0-2.3c0.2-0.8,0.6-1.5,1.1-2.3s1.1-1.4,1.8-2.1
		c0.5-0.4,0.9-0.8,1.3-1.1c0.4-0.3,0.7-0.5,1-0.7l-0.3-0.3c-0.6-0.6-1.2-0.9-1.9-0.9c-0.7,0-1.5,0.4-2.4,1.3
		c-0.6,0.6-1.2,1.2-1.7,1.8c-0.5,0.6-0.9,1.3-1.2,1.8l-3.2-2.5c0.1-0.3,0.3-0.6,0.6-0.9c0.2-0.4,0.5-0.7,0.8-1.2
		c0.3-0.4,0.7-0.8,1-1.2C234,238,234.4,237.6,234.8,237.2z M244.9,247.4c0.4-0.3,0.7-0.7,1-1c0.3-0.3,0.5-0.6,0.7-0.8l-2.6-2.7
		c-0.2,0.1-0.4,0.3-0.7,0.5c-0.3,0.2-0.6,0.5-0.8,0.7c-0.3,0.3-0.6,0.6-0.9,1c-0.3,0.3-0.4,0.6-0.6,1c-0.1,0.3-0.2,0.6-0.1,1
		c0.1,0.3,0.2,0.6,0.5,0.9c0.5,0.6,1.1,0.8,1.7,0.6S244.3,248,244.9,247.4z"/>
	<path class="st1" d="M239.7,226.8l2.4-4.4l4,3.2l3.6-4.7l3.2,2.5l-3.6,4.7l4.8,3.8c0.8,0.6,1.6,1,2.3,1.1s1.4-0.3,2.1-1.2
		c0.3-0.4,0.6-0.9,0.9-1.4c0.3-0.5,0.5-1,0.6-1.5l3.4,1.8c-0.2,0.6-0.4,1.3-0.7,1.9c-0.3,0.7-0.8,1.4-1.4,2.3
		c-0.8,1.1-1.7,1.8-2.5,2.3s-1.7,0.7-2.5,0.7c-0.8,0-1.7-0.2-2.5-0.6c-0.9-0.4-1.7-1-2.6-1.6L239.7,226.8z"/>
	<path class="st1" d="M258.8,223.6c-1.3-0.8-2.4-1.6-3.2-2.6c-0.8-1-1.3-2-1.6-3c-0.3-1-0.4-2.1-0.2-3.2c0.1-1.1,0.5-2.1,1-3
		c1.2-2.1,2.8-3.5,4.8-4c2-0.5,4.3,0,6.8,1.4c0.3,0.1,0.5,0.3,0.8,0.5c0.3,0.2,0.5,0.4,0.8,0.5l-5.5,9.7c0.9,0.4,1.9,0.4,2.8-0.1
		c0.9-0.4,1.7-1.3,2.4-2.5c0.4-0.8,0.8-1.6,1.1-2.4c0.3-0.8,0.5-1.6,0.5-2.2l3.8,1.4c0,0.3-0.1,0.7-0.2,1.1
		c-0.1,0.4-0.2,0.9-0.4,1.4c-0.2,0.5-0.4,1.1-0.6,1.6c-0.2,0.6-0.5,1.1-0.8,1.7c-0.8,1.4-1.6,2.4-2.6,3.2c-1,0.8-2,1.3-3.1,1.6
		c-1.1,0.3-2.2,0.3-3.3,0.1C261,224.7,259.9,224.2,258.8,223.6z M262.8,212.6c-0.4-0.2-0.8-0.3-1.2-0.4c-0.4-0.1-0.8-0.1-1.2,0
		c-0.4,0.1-0.8,0.2-1.1,0.5c-0.4,0.2-0.7,0.6-1,1.1c-0.3,0.5-0.4,0.9-0.5,1.4c0,0.4,0,0.8,0.2,1.2s0.4,0.7,0.6,1.1
		c0.3,0.3,0.6,0.6,0.9,0.9L262.8,212.6z"/>
</g>
<g>
	<path class="st0" d="M161.7,323.4C72.5,323.4,0,250.8,0,161.7C0,72.5,72.5,0,161.7,0s161.7,72.5,161.7,161.7
		C323.4,250.8,250.8,323.4,161.7,323.4z M161.7,10C78,10,10,78,10,161.7c0,83.6,68,151.7,151.7,151.7c83.6,0,151.7-68,151.7-151.7
		C313.4,78,245.3,10,161.7,10z"/>
</g>
</svg>
